%TF.GenerationSoftware,KiCad,Pcbnew,6.0.2+dfsg-1*%
%TF.CreationDate,2025-12-05T10:54:58+01:00*%
%TF.ProjectId,PowerRegulationSchema,506f7765-7252-4656-9775-6c6174696f6e,rev?*%
%TF.SameCoordinates,Original*%
%TF.FileFunction,Copper,L1,Top*%
%TF.FilePolarity,Positive*%
%FSLAX46Y46*%
G04 Gerber Fmt 4.6, Leading zero omitted, Abs format (unit mm)*
G04 Created by KiCad (PCBNEW 6.0.2+dfsg-1) date 2025-12-05 10:54:58*
%MOMM*%
%LPD*%
G01*
G04 APERTURE LIST*
%TA.AperFunction,Profile*%
%ADD10C,0.100000*%
%TD*%
%ADD11C,0.300000*%
%TA.AperFunction,NonConductor*%
%ADD12C,0.300000*%
%TD*%
%ADD13C,0.250000*%
%TA.AperFunction,NonConductor*%
%ADD14C,0.250000*%
%TD*%
%TA.AperFunction,ComponentPad*%
%ADD15R,1.730000X2.030000*%
%TD*%
%TA.AperFunction,ComponentPad*%
%ADD16O,1.730000X2.030000*%
%TD*%
%TA.AperFunction,ComponentPad*%
%ADD17R,2.300000X2.000000*%
%TD*%
%TA.AperFunction,ComponentPad*%
%ADD18C,2.300000*%
%TD*%
%TA.AperFunction,ComponentPad*%
%ADD19C,1.600000*%
%TD*%
%TA.AperFunction,ComponentPad*%
%ADD20O,1.600000X1.600000*%
%TD*%
%TA.AperFunction,ComponentPad*%
%ADD21R,1.727200X1.727200*%
%TD*%
%TA.AperFunction,ComponentPad*%
%ADD22O,1.727200X1.727200*%
%TD*%
%TA.AperFunction,ComponentPad*%
%ADD23R,3.000000X3.000000*%
%TD*%
%TA.AperFunction,ComponentPad*%
%ADD24C,3.000000*%
%TD*%
%TA.AperFunction,Conductor*%
%ADD25C,1.000000*%
%TD*%
G04 APERTURE END LIST*
D10*
X48260000Y-73660000D02*
X132080000Y-73660000D01*
X132080000Y-73660000D02*
X132080000Y-104140000D01*
X132080000Y-104140000D02*
X48260000Y-104140000D01*
X48260000Y-104140000D02*
X48260000Y-73660000D01*
D11*
D12*
X94305714Y-93158571D02*
X95234285Y-93158571D01*
X94734285Y-93730000D01*
X94948571Y-93730000D01*
X95091428Y-93801428D01*
X95162857Y-93872857D01*
X95234285Y-94015714D01*
X95234285Y-94372857D01*
X95162857Y-94515714D01*
X95091428Y-94587142D01*
X94948571Y-94658571D01*
X94520000Y-94658571D01*
X94377142Y-94587142D01*
X94305714Y-94515714D01*
X95877142Y-94515714D02*
X95948571Y-94587142D01*
X95877142Y-94658571D01*
X95805714Y-94587142D01*
X95877142Y-94515714D01*
X95877142Y-94658571D01*
X96448571Y-93158571D02*
X97377142Y-93158571D01*
X96877142Y-93730000D01*
X97091428Y-93730000D01*
X97234285Y-93801428D01*
X97305714Y-93872857D01*
X97377142Y-94015714D01*
X97377142Y-94372857D01*
X97305714Y-94515714D01*
X97234285Y-94587142D01*
X97091428Y-94658571D01*
X96662857Y-94658571D01*
X96520000Y-94587142D01*
X96448571Y-94515714D01*
X97805714Y-93158571D02*
X98305714Y-94658571D01*
X98805714Y-93158571D01*
D11*
D12*
X53232857Y-79418571D02*
X53090000Y-79347142D01*
X53018571Y-79275714D01*
X52947142Y-79132857D01*
X52947142Y-78704285D01*
X53018571Y-78561428D01*
X53090000Y-78490000D01*
X53232857Y-78418571D01*
X53447142Y-78418571D01*
X53590000Y-78490000D01*
X53661428Y-78561428D01*
X53732857Y-78704285D01*
X53732857Y-79132857D01*
X53661428Y-79275714D01*
X53590000Y-79347142D01*
X53447142Y-79418571D01*
X53232857Y-79418571D01*
D11*
D12*
X54375714Y-87163571D02*
X53661428Y-87163571D01*
X53661428Y-85663571D01*
X50911428Y-88221428D02*
X50982857Y-88150000D01*
X51125714Y-88078571D01*
X51482857Y-88078571D01*
X51625714Y-88150000D01*
X51697142Y-88221428D01*
X51768571Y-88364285D01*
X51768571Y-88507142D01*
X51697142Y-88721428D01*
X50840000Y-89578571D01*
X51768571Y-89578571D01*
X52268571Y-88078571D02*
X53197142Y-88078571D01*
X52697142Y-88650000D01*
X52911428Y-88650000D01*
X53054285Y-88721428D01*
X53125714Y-88792857D01*
X53197142Y-88935714D01*
X53197142Y-89292857D01*
X53125714Y-89435714D01*
X53054285Y-89507142D01*
X52911428Y-89578571D01*
X52482857Y-89578571D01*
X52340000Y-89507142D01*
X52268571Y-89435714D01*
X54125714Y-88078571D02*
X54268571Y-88078571D01*
X54411428Y-88150000D01*
X54482857Y-88221428D01*
X54554285Y-88364285D01*
X54625714Y-88650000D01*
X54625714Y-89007142D01*
X54554285Y-89292857D01*
X54482857Y-89435714D01*
X54411428Y-89507142D01*
X54268571Y-89578571D01*
X54125714Y-89578571D01*
X53982857Y-89507142D01*
X53911428Y-89435714D01*
X53840000Y-89292857D01*
X53768571Y-89007142D01*
X53768571Y-88650000D01*
X53840000Y-88364285D01*
X53911428Y-88221428D01*
X53982857Y-88150000D01*
X54125714Y-88078571D01*
X55125714Y-88578571D02*
X55482857Y-89578571D01*
X55840000Y-88578571D01*
X53482857Y-91993571D02*
X53482857Y-90493571D01*
X54340000Y-91993571D01*
X54340000Y-90493571D01*
D11*
D12*
X96451547Y-76477791D02*
X96300024Y-76528299D01*
X96148502Y-76679822D01*
X96047486Y-76881852D01*
X96047486Y-77083883D01*
X96097994Y-77235406D01*
X96249517Y-77487944D01*
X96401040Y-77639467D01*
X96653578Y-77790990D01*
X96805101Y-77841497D01*
X97007131Y-77841497D01*
X97209162Y-77740482D01*
X97310177Y-77639467D01*
X97411192Y-77437436D01*
X97411192Y-77336421D01*
X97057639Y-76982868D01*
X96855608Y-77184898D01*
X97966776Y-76982868D02*
X96906116Y-75922208D01*
X98572868Y-76376776D01*
X97512208Y-75316116D01*
X99077944Y-75871700D02*
X98017284Y-74811040D01*
X98269822Y-74558502D01*
X98471852Y-74457486D01*
X98673883Y-74457486D01*
X98825406Y-74507994D01*
X99077944Y-74659517D01*
X99229467Y-74811040D01*
X99380990Y-75063578D01*
X99431497Y-75215101D01*
X99431497Y-75417131D01*
X99330482Y-75619162D01*
X99077944Y-75871700D01*
D11*
D12*
X91883933Y-87395406D02*
X91732410Y-87445913D01*
X91580887Y-87597436D01*
X91479872Y-87799467D01*
X91479872Y-88001497D01*
X91530380Y-88153020D01*
X91681902Y-88405558D01*
X91833425Y-88557081D01*
X92085963Y-88708604D01*
X92237486Y-88759112D01*
X92439517Y-88759112D01*
X92641547Y-88658097D01*
X92742563Y-88557081D01*
X92843578Y-88355051D01*
X92843578Y-88254036D01*
X92490024Y-87900482D01*
X92287994Y-88102513D01*
X93399162Y-87900482D02*
X92338502Y-86839822D01*
X92742563Y-86435761D01*
X92894086Y-86385253D01*
X92995101Y-86385253D01*
X93146624Y-86435761D01*
X93298147Y-86587284D01*
X93348654Y-86738807D01*
X93348654Y-86839822D01*
X93298147Y-86991345D01*
X92894086Y-87395406D01*
X94459822Y-86839822D02*
X93399162Y-85779162D01*
X94106269Y-85072055D02*
X94308299Y-84870024D01*
X94459822Y-84819517D01*
X94661852Y-84819517D01*
X94914391Y-84971040D01*
X95267944Y-85324593D01*
X95419467Y-85577131D01*
X95419467Y-85779162D01*
X95368959Y-85930685D01*
X95166929Y-86132715D01*
X95015406Y-86183223D01*
X94813375Y-86183223D01*
X94560837Y-86031700D01*
X94207284Y-85678147D01*
X94055761Y-85425608D01*
X94055761Y-85223578D01*
X94106269Y-85072055D01*
X95065913Y-84314441D02*
X95065913Y-84213425D01*
X95116421Y-84061902D01*
X95368959Y-83809364D01*
X95520482Y-83758857D01*
X95621497Y-83758857D01*
X95773020Y-83809364D01*
X95874036Y-83910380D01*
X95975051Y-84112410D01*
X95975051Y-85324593D01*
X96631650Y-84667994D01*
D11*
D12*
X65414285Y-75378571D02*
X66271428Y-75378571D01*
X65842857Y-76878571D02*
X65842857Y-75378571D01*
X67342857Y-76807142D02*
X67200000Y-76878571D01*
X66914285Y-76878571D01*
X66771428Y-76807142D01*
X66699999Y-76664285D01*
X66699999Y-76092857D01*
X66771428Y-75950000D01*
X66914285Y-75878571D01*
X67200000Y-75878571D01*
X67342857Y-75950000D01*
X67414285Y-76092857D01*
X67414285Y-76235714D01*
X66699999Y-76378571D01*
X68057142Y-76878571D02*
X68057142Y-75878571D01*
X68057142Y-76021428D02*
X68128571Y-75950000D01*
X68271428Y-75878571D01*
X68485714Y-75878571D01*
X68628571Y-75950000D01*
X68700000Y-76092857D01*
X68700000Y-76878571D01*
X68700000Y-76092857D02*
X68771428Y-75950000D01*
X68914285Y-75878571D01*
X69128571Y-75878571D01*
X69271428Y-75950000D01*
X69342857Y-76092857D01*
X69342857Y-76878571D01*
X70057142Y-75878571D02*
X70057142Y-77378571D01*
X70057142Y-75950000D02*
X70200000Y-75878571D01*
X70485714Y-75878571D01*
X70628571Y-75950000D01*
X70700000Y-76021428D01*
X70771428Y-76164285D01*
X70771428Y-76592857D01*
X70700000Y-76735714D01*
X70628571Y-76807142D01*
X70485714Y-76878571D01*
X70200000Y-76878571D01*
X70057142Y-76807142D01*
X71414285Y-76735714D02*
X71485714Y-76807142D01*
X71414285Y-76878571D01*
X71342857Y-76807142D01*
X71414285Y-76735714D01*
X71414285Y-76878571D01*
X73200000Y-76807142D02*
X73342857Y-76878571D01*
X73628571Y-76878571D01*
X73771428Y-76807142D01*
X73842857Y-76664285D01*
X73842857Y-76592857D01*
X73771428Y-76450000D01*
X73628571Y-76378571D01*
X73414285Y-76378571D01*
X73271428Y-76307142D01*
X73200000Y-76164285D01*
X73200000Y-76092857D01*
X73271428Y-75950000D01*
X73414285Y-75878571D01*
X73628571Y-75878571D01*
X73771428Y-75950000D01*
X75057142Y-76807142D02*
X74914285Y-76878571D01*
X74628571Y-76878571D01*
X74485714Y-76807142D01*
X74414285Y-76664285D01*
X74414285Y-76092857D01*
X74485714Y-75950000D01*
X74628571Y-75878571D01*
X74914285Y-75878571D01*
X75057142Y-75950000D01*
X75128571Y-76092857D01*
X75128571Y-76235714D01*
X74414285Y-76378571D01*
X75771428Y-75878571D02*
X75771428Y-76878571D01*
X75771428Y-76021428D02*
X75842857Y-75950000D01*
X75985714Y-75878571D01*
X76200000Y-75878571D01*
X76342857Y-75950000D01*
X76414285Y-76092857D01*
X76414285Y-76878571D01*
X77057142Y-76807142D02*
X77200000Y-76878571D01*
X77485714Y-76878571D01*
X77628571Y-76807142D01*
X77700000Y-76664285D01*
X77700000Y-76592857D01*
X77628571Y-76450000D01*
X77485714Y-76378571D01*
X77271428Y-76378571D01*
X77128571Y-76307142D01*
X77057142Y-76164285D01*
X77057142Y-76092857D01*
X77128571Y-75950000D01*
X77271428Y-75878571D01*
X77485714Y-75878571D01*
X77628571Y-75950000D01*
X78557142Y-76878571D02*
X78414285Y-76807142D01*
X78342857Y-76735714D01*
X78271428Y-76592857D01*
X78271428Y-76164285D01*
X78342857Y-76021428D01*
X78414285Y-75950000D01*
X78557142Y-75878571D01*
X78771428Y-75878571D01*
X78914285Y-75950000D01*
X78985714Y-76021428D01*
X79057142Y-76164285D01*
X79057142Y-76592857D01*
X78985714Y-76735714D01*
X78914285Y-76807142D01*
X78771428Y-76878571D01*
X78557142Y-76878571D01*
X79700000Y-76878571D02*
X79700000Y-75878571D01*
X79700000Y-76164285D02*
X79771428Y-76021428D01*
X79842857Y-75950000D01*
X79985714Y-75878571D01*
X80128571Y-75878571D01*
X81700000Y-75521428D02*
X81771428Y-75450000D01*
X81914285Y-75378571D01*
X82271428Y-75378571D01*
X82414285Y-75450000D01*
X82485714Y-75521428D01*
X82557142Y-75664285D01*
X82557142Y-75807142D01*
X82485714Y-76021428D01*
X81628571Y-76878571D01*
X82557142Y-76878571D01*
X83485714Y-75378571D02*
X83628571Y-75378571D01*
X83771428Y-75450000D01*
X83842857Y-75521428D01*
X83914285Y-75664285D01*
X83985714Y-75950000D01*
X83985714Y-76307142D01*
X83914285Y-76592857D01*
X83842857Y-76735714D01*
X83771428Y-76807142D01*
X83628571Y-76878571D01*
X83485714Y-76878571D01*
X83342857Y-76807142D01*
X83271428Y-76735714D01*
X83200000Y-76592857D01*
X83128571Y-76307142D01*
X83128571Y-75950000D01*
X83200000Y-75664285D01*
X83271428Y-75521428D01*
X83342857Y-75450000D01*
X83485714Y-75378571D01*
X84557142Y-75521428D02*
X84628571Y-75450000D01*
X84771428Y-75378571D01*
X85128571Y-75378571D01*
X85271428Y-75450000D01*
X85342857Y-75521428D01*
X85414285Y-75664285D01*
X85414285Y-75807142D01*
X85342857Y-76021428D01*
X84485714Y-76878571D01*
X85414285Y-76878571D01*
X86771428Y-75378571D02*
X86057142Y-75378571D01*
X85985714Y-76092857D01*
X86057142Y-76021428D01*
X86200000Y-75950000D01*
X86557142Y-75950000D01*
X86700000Y-76021428D01*
X86771428Y-76092857D01*
X86842857Y-76235714D01*
X86842857Y-76592857D01*
X86771428Y-76735714D01*
X86700000Y-76807142D01*
X86557142Y-76878571D01*
X86200000Y-76878571D01*
X86057142Y-76807142D01*
X85985714Y-76735714D01*
D11*
D12*
X126892857Y-79418571D02*
X126750000Y-79347142D01*
X126678571Y-79275714D01*
X126607142Y-79132857D01*
X126607142Y-78704285D01*
X126678571Y-78561428D01*
X126750000Y-78490000D01*
X126892857Y-78418571D01*
X127107142Y-78418571D01*
X127250000Y-78490000D01*
X127321428Y-78561428D01*
X127392857Y-78704285D01*
X127392857Y-79132857D01*
X127321428Y-79275714D01*
X127250000Y-79347142D01*
X127107142Y-79418571D01*
X126892857Y-79418571D01*
D11*
D12*
X75530000Y-89578571D02*
X75530000Y-88078571D01*
X75530000Y-88792857D02*
X76387142Y-88792857D01*
X76387142Y-89578571D02*
X76387142Y-88078571D01*
X77815714Y-89578571D02*
X77101428Y-89578571D01*
X77101428Y-88078571D01*
X78315714Y-89578571D02*
X78315714Y-88078571D01*
X79172857Y-89578571D02*
X78530000Y-88721428D01*
X79172857Y-88078571D02*
X78315714Y-88935714D01*
X79815714Y-89007142D02*
X80958571Y-89007142D01*
X81672857Y-89578571D02*
X81672857Y-88078571D01*
X82244285Y-88078571D01*
X82387142Y-88150000D01*
X82458571Y-88221428D01*
X82530000Y-88364285D01*
X82530000Y-88578571D01*
X82458571Y-88721428D01*
X82387142Y-88792857D01*
X82244285Y-88864285D01*
X81672857Y-88864285D01*
X83172857Y-89578571D02*
X83172857Y-88078571D01*
X83672857Y-89150000D01*
X84172857Y-88078571D01*
X84172857Y-89578571D01*
X85172857Y-88078571D02*
X85315714Y-88078571D01*
X85458571Y-88150000D01*
X85530000Y-88221428D01*
X85601428Y-88364285D01*
X85672857Y-88650000D01*
X85672857Y-89007142D01*
X85601428Y-89292857D01*
X85530000Y-89435714D01*
X85458571Y-89507142D01*
X85315714Y-89578571D01*
X85172857Y-89578571D01*
X85030000Y-89507142D01*
X84958571Y-89435714D01*
X84887142Y-89292857D01*
X84815714Y-89007142D01*
X84815714Y-88650000D01*
X84887142Y-88364285D01*
X84958571Y-88221428D01*
X85030000Y-88150000D01*
X85172857Y-88078571D01*
X86172857Y-88078571D02*
X87101428Y-88078571D01*
X86601428Y-88650000D01*
X86815714Y-88650000D01*
X86958571Y-88721428D01*
X87030000Y-88792857D01*
X87101428Y-88935714D01*
X87101428Y-89292857D01*
X87030000Y-89435714D01*
X86958571Y-89507142D01*
X86815714Y-89578571D01*
X86387142Y-89578571D01*
X86244285Y-89507142D01*
X86172857Y-89435714D01*
D11*
D12*
X53232857Y-99738571D02*
X53090000Y-99667142D01*
X53018571Y-99595714D01*
X52947142Y-99452857D01*
X52947142Y-99024285D01*
X53018571Y-98881428D01*
X53090000Y-98810000D01*
X53232857Y-98738571D01*
X53447142Y-98738571D01*
X53590000Y-98810000D01*
X53661428Y-98881428D01*
X53732857Y-99024285D01*
X53732857Y-99452857D01*
X53661428Y-99595714D01*
X53590000Y-99667142D01*
X53447142Y-99738571D01*
X53232857Y-99738571D01*
D13*
D14*
X101385714Y-99988571D02*
X102052380Y-99988571D01*
X101004761Y-100226666D02*
X101719047Y-100464761D01*
X101719047Y-99845714D01*
X101957142Y-99464761D02*
X102004761Y-99417142D01*
X102052380Y-99464761D01*
X102004761Y-99512380D01*
X101957142Y-99464761D01*
X102052380Y-99464761D01*
X101052380Y-99083809D02*
X101052380Y-98417142D01*
X102052380Y-98845714D01*
X102052380Y-98036190D02*
X101052380Y-98036190D01*
X101671428Y-97940952D02*
X102052380Y-97655238D01*
X101385714Y-97655238D02*
X101766666Y-98036190D01*
D15*
%TO.P,J2,1,Pin_1*%
%TO.N,/3.3V*%
X109220000Y-81280000D03*
D16*
%TO.P,J2,2,Pin_2*%
%TO.N,/GPO2*%
X111760000Y-81280000D03*
%TO.P,J2,3,Pin_3*%
%TO.N,/GND*%
X114300000Y-81280000D03*
%TD*%
D17*
%TO.P,PS1,1,AC/L*%
%TO.N,Net-(J1-Pad2)*%
X66717500Y-86400000D03*
D18*
%TO.P,PS1,2,AC/N*%
%TO.N,Net-(J1-Pad1)*%
X66717500Y-91400000D03*
%TO.P,PS1,3,-Vout*%
%TO.N,/GND*%
X96117500Y-81200000D03*
%TO.P,PS1,4,+Vout*%
%TO.N,/3.3V*%
X96117500Y-96600000D03*
%TD*%
D19*
%TO.P,R2,1*%
%TO.N,/GPO2*%
X101600000Y-102870000D03*
D20*
%TO.P,R2,2*%
%TO.N,/3.3V*%
X101600000Y-95250000D03*
%TD*%
D21*
%TO.P,U1,1,UTXD*%
%TO.N,unconnected-(U1-Pad1)*%
X108839000Y-90170000D03*
D22*
%TO.P,U1,2,GND*%
%TO.N,/GND*%
X111379000Y-90170000D03*
%TO.P,U1,3,CH_PD*%
%TO.N,/3.3V*%
X108839000Y-92710000D03*
%TO.P,U1,4,GPIO2*%
%TO.N,/GPO2*%
X111379000Y-92710000D03*
%TO.P,U1,5,RST*%
%TO.N,unconnected-(U1-Pad5)*%
X108839000Y-95250000D03*
%TO.P,U1,6,GPIO0*%
%TO.N,unconnected-(U1-Pad6)*%
X111379000Y-95250000D03*
%TO.P,U1,7,VCC*%
%TO.N,/3.3V*%
X108839000Y-97790000D03*
%TO.P,U1,8,URXD*%
%TO.N,unconnected-(U1-Pad8)*%
X111379000Y-97790000D03*
%TD*%
D23*
%TO.P,J1,1,Pin_1*%
%TO.N,Net-(J1-Pad1)*%
X58420000Y-91440000D03*
D24*
%TO.P,J1,2,Pin_2*%
%TO.N,Net-(J1-Pad2)*%
X58420000Y-86360000D03*
%TD*%
D25*
%TO.N,/GND*%
X119380000Y-81280000D02*
X114300000Y-81280000D01*
X96117500Y-81200000D02*
X101117500Y-76200000D01*
X111379000Y-90170000D02*
X114300000Y-87249000D01*
X119380000Y-76200000D02*
X119380000Y-81280000D01*
X101117500Y-76200000D02*
X119380000Y-76200000D01*
X114300000Y-87249000D02*
X114300000Y-81280000D01*
%TO.N,Net-(J1-Pad1)*%
X58420000Y-91440000D02*
X66677500Y-91440000D01*
X66677500Y-91440000D02*
X66717500Y-91400000D01*
%TO.N,Net-(J1-Pad2)*%
X58420000Y-86360000D02*
X66677500Y-86360000D01*
X66677500Y-86360000D02*
X66717500Y-86400000D01*
%TO.N,/3.3V*%
X101600000Y-95250000D02*
X104140000Y-97790000D01*
X100250000Y-96600000D02*
X101600000Y-95250000D01*
X101600000Y-95250000D02*
X101600000Y-86360000D01*
X101600000Y-95250000D02*
X104140000Y-92710000D01*
X104140000Y-92710000D02*
X108839000Y-92710000D01*
X101600000Y-86360000D02*
X106680000Y-81280000D01*
X104140000Y-97790000D02*
X108839000Y-97790000D01*
X96117500Y-96600000D02*
X100250000Y-96600000D01*
X106680000Y-81280000D02*
X109220000Y-81280000D01*
%TO.N,/GPO2*%
X91440000Y-91440000D02*
X104140000Y-78740000D01*
X111760000Y-78740000D02*
X111760000Y-81280000D01*
X91440000Y-101600000D02*
X91440000Y-91440000D01*
X104140000Y-78740000D02*
X111760000Y-78740000D01*
X101600000Y-102870000D02*
X92710000Y-102870000D01*
X92710000Y-102870000D02*
X91440000Y-101600000D01*
X113030000Y-102870000D02*
X114300000Y-101600000D01*
X101600000Y-102870000D02*
X113030000Y-102870000D01*
X114300000Y-95631000D02*
X111379000Y-92710000D01*
X114300000Y-101600000D02*
X114300000Y-95631000D01*
%TD*%
M02*
